<svg t="1696251304229" class="icon" viewBox="0 0 1024 1024" version="1.1" xmlns="http://www.w3.org/2000/svg" p-id="9784" width="200" height="200">
<path d="M675.98677 154.390298c22.015436-34.716648 31.611907-90.884234-19.475193-111.488424-68.3043-28.507166-118.544653 70.280044-123.907387 77.336274-2.540243 3.104741-5.080485 6.491731-7.05623 9.031973h-5.927232l-3.951489-9.031973s20.039691-24.555678 16.652701-65.764058S479.823594 25.402426 459.219405 41.490628c-20.60419 16.088203-23.99118 79.876516-23.99118 79.876516s-3.104741 8.467475-7.056229 12.136715c-1.975744 0-3.951488 0.564498-6.491731 0.564498 0 0 0-0.564498-0.564499-0.564498-5.080485-8.467475-5.927233-20.039691-7.056229-30.200662-1.411246-10.443219-9.031974-41.208379-40.643881-24.555678-31.611907 17.499449-8.467475 64.352811-8.467475 64.352812l0.564498 1.975744C76.207277 220.154355 0 516.798236 0 688.970232c0 183.744212 228.339581 308.780595 512 308.780595s512-110.359427 512-308.780595c-0.564498-156.083793-89.472988-447.08269-348.01323-534.579934zM170.196251 571.554576c-4.515987-14.959206-0.564498-32.176406 9.031974-39.232636 3.951488-3.104741 97.940463-69.715546 197.292172 0 9.596472 7.056229 14.112459 24.555678 9.596472 38.668137-3.104741 11.007718-10.443219 17.499449-17.499449 17.499449-2.540243 0-5.080485-0.564498-8.467475-2.540243-83.263506-58.14333-163.70452-0.564498-164.551268 0-9.314223 6.209482-20.886439-0.282249-25.402426-14.394707z m572.683573 233.420066c-6.491731 3.951488-82.416759 71.69129-226.363837 74.231532h-9.031974c-143.947078-2.540243-219.872106-70.844542-226.363837-74.231532-9.031974-5.080485-12.136714-17.499449-7.056229-26.531423 5.080485-9.031974 16.652701-12.136714 25.684675-7.056229 1.411246 0.564498 92.29548 50.240353 212.251378 51.0871 119.3914-0.564498 210.275634-50.240353 212.251378-51.0871 9.031974-5.080485 20.60419-1.975744 25.684675 7.056229 4.515987 9.031974 1.975744 20.60419-7.056229 26.531423z m110.923925-219.307608c-4.515987 14.959206-16.088203 20.60419-25.684675 13.54796-0.564498-0.564498-81.85226-57.296582-164.551268 0-2.540243 1.975744-5.080485 2.540243-7.620728 2.540243-7.056229 0-14.112459-6.491731-17.499448-17.499449-4.515987-14.959206 0-32.176406 9.596471-38.668136 99.916207-69.715546 193.340684-2.540243 197.292172 0 8.467475 7.902977 12.983462 25.402426 8.467476 40.079382z" p-id="9785">
</path></svg>